<?xml version="1.0" encoding="UTF-8" standalone="no"?>
<!-- Created with Inkscape (http://www.inkscape.org/) -->

<svg
   version="1.1"
   id="svg1"
   width="737.21692"
   height="365.9722"
   viewBox="0 0 737.21692 365.9722"
   xmlns="http://www.w3.org/2000/svg"
   xmlns:svg="http://www.w3.org/2000/svg">
  <defs
     id="defs1" />
  <g
     id="g1"
     transform="translate(-67.449707,-52.5979)">
    <path
       style="fill:#ffffff"
       d="m 599.46717,417.91708 c 10.0112,-2.12416 16.86994,-9.2453 18.4692,-19.17581 1.34775,-8.36878 -1.30129,-16.24854 -7.26509,-21.6105 -4.81313,-4.32742 -9.50436,-5.97611 -17.00463,-5.97611 -6.87511,0 -11.81929,1.52326 -16.52154,5.09014 -3.36914,2.55566 -6.83212,7.50746 -7.91438,11.31698 -1.15117,4.05205 -0.9663,11.54997 0.38508,15.61854 3.6938,11.12082 16.67958,17.53152 29.85136,14.73676 z m -11.53526,-12.75579 c -2.95247,-1.96207 -5.26526,-6.57188 -5.26526,-10.49462 0,-3.67269 2.21972,-8.35303 4.88222,-10.29431 2.65888,-1.93863 8.94936,-1.92196 11.5689,0.0307 2.79341,2.08223 4.30408,5.13999 4.66083,9.43406 0.59529,7.16531 -4.01632,12.82959 -10.44528,12.82959 -2.1424,0 -3.85395,-0.47701 -5.40141,-1.50538 z m 92.101,11.10361 c 4.74757,-2.13058 8.72011,-6.20534 11.19347,-11.48147 1.57598,-3.36185 1.77051,-4.56343 1.74583,-10.78343 -0.0205,-5.16777 -0.33396,-7.69799 -1.19752,-9.66667 -3.04472,-6.94111 -7.42769,-10.82319 -14.41201,-12.765 -5.34893,-1.48714 -12.28494,-0.62544 -18.07813,2.24593 l -3.95123,1.95841 V 356.553 337.33333 h -7 -7 v 40.02256 40.02255 l 7.16134,-0.18922 7.16133,-0.18922 0.3528,-2 c 0.235,-1.33222 0.53013,-1.71858 0.8839,-1.15714 0.7117,1.12949 5.15982,3.35755 8.26361,4.13924 4.01142,1.01028 10.4568,0.26629 14.87661,-1.7172 z m -16.89663,-10.40721 c -1.3917,-0.36914 -3.5667,-1.64856 -4.83333,-2.84315 l -2.30297,-2.17198 v -6.48794 c 0,-6.45514 0.0112,-6.49912 2.20694,-8.69489 4.31924,-4.31924 11.82009,-4.68462 16.25383,-0.79174 2.93233,2.57461 4.2059,5.44233 4.2059,9.47049 0,5.28843 -2.99062,9.65092 -7.7892,11.36231 -2.95109,1.05249 -4.26437,1.07911 -7.74117,0.1569 z m 76.17221,12.08535 c 1.85578,-0.39799 4.85212,-1.74028 6.65852,-2.98288 l 3.28438,-2.25925 0.20763,2.14955 0.20763,2.14954 7.16667,0.18922 7.16666,0.18922 v -22.02255 -22.02256 h -6.68333 -6.68333 l -0.39931,1.99651 -0.3993,1.99651 -2.36888,-2.07991 c -3.64633,-3.20152 -6.49199,-4.16093 -12.46585,-4.20286 -4.53672,-0.0318 -5.90235,0.24154 -9.14296,1.83026 -6.68789,3.27878 -11.18765,9.76282 -12.50714,18.02248 -1.32065,8.26692 1.41055,18.15354 6.10652,22.10494 5.59895,4.71121 12.693,6.47713 19.85209,4.94178 z m -5.00822,-12.2141 c -6.20241,-2.7016 -8.747,-11.94602 -4.97029,-18.05688 3.6882,-5.96762 13.36473,-6.64054 18.33717,-1.27519 1.5395,1.66116 1.66617,2.29039 1.66617,8.27724 0,5.44017 -0.21095,6.74759 -1.3152,8.15142 -2.77318,3.52552 -9.17759,4.88102 -13.71785,2.90341 z m -451.96694,9.704 c 2.93333,-1.16245 6.01866,-2.64448 6.85628,-3.29342 l 1.52295,-1.17987 -3.03022,-6.48448 -3.03021,-6.48447 -2.49273,1.64539 c -4.27214,2.81992 -8.08038,3.87214 -14.22179,3.92947 -5.1728,0.0483 -6.15591,-0.15666 -10.1255,-2.11088 -4.96767,-2.44558 -7.25535,-4.8199 -9.75201,-10.12135 -1.53104,-3.25105 -1.72677,-4.49789 -1.72677,-11 0,-6.53907 0.1912,-7.74114 1.76531,-11.09864 2.20294,-4.69877 6.30718,-8.86392 10.79183,-10.95199 6.08641,-2.83386 15.93232,-1.77724 21.6984,2.32858 1.07266,0.76379 2.20397,1.38453 2.51404,1.37941 0.59832,-0.01 5.57175,-11.75285 5.56672,-13.14381 -0.008,-2.10662 -11.83445,-6.08508 -19.66964,-6.61672 -17.91762,-1.21577 -32.81171,9.59488 -37.34068,27.10317 -1.77022,6.8434 -1.50988,17.05867 0.60316,23.66667 2.91569,9.11807 8.89952,16.32652 17.15325,20.66374 6.54461,3.43909 10.92636,4.33952 19.91761,4.09297 6.76032,-0.18538 8.29716,-0.46009 13,-2.32377 z m 206.66666,1.27794 c 5.92949,-1.42284 10.83669,-3.36243 13.74325,-5.43208 l 1.92342,-1.36959 v -15.96813 -15.96813 l -13.83334,0.18019 -13.83333,0.18019 -0.18922,7.16667 -0.18922,7.16667 h 6.68922 6.68922 v 4.34983 c 0,4.12627 -0.0942,4.38684 -1.83333,5.0699 -3.02605,1.18851 -9.866,1.47956 -14.29474,0.60826 -11.55068,-2.27246 -17.82643,-9.2739 -18.41817,-20.54792 -0.58015,-11.05328 3.01184,-18.32321 10.99513,-22.25337 4.369,-2.15085 4.79606,-2.22661 12.53709,-2.22407 6.97637,0.002 8.63208,0.22833 12.78747,1.74571 l 4.77345,1.74306 2.15977,-6.07903 c 1.18787,-3.34347 2.2802,-6.41048 2.4274,-6.81557 0.6455,-1.77651 -11.56101,-5.46028 -20.04271,-6.04864 -19.83478,-1.3759 -36.25195,10.41105 -40.09273,28.78517 -1.27265,6.0883 -1.26232,15.7075 0.0222,20.63896 5.05132,19.39331 26.00762,30.34419 47.97921,25.07192 z M 102.33333,416.3304 c 13.49083,-2.83243 24.00833,-12.47355 27.36491,-25.08468 1.13294,-4.25663 1.25982,-14.43018 0.2417,-19.37957 -0.3997,-1.94305 -1.88495,-5.95962 -3.30054,-8.9257 -4.37236,-9.16136 -12.9339,-15.84341 -23.97274,-18.71006 -3.420063,-0.88814 -7.564884,-1.13638 -19.666662,-1.17785 L 67.666665,343 67.493456,379.33333 c -0.09527,19.98334 -0.02968,36.70834 0.145743,37.16667 0.485118,1.26747 28.501705,1.13052 34.694131,-0.1696 z M 82.666665,380.00154 v -22.79903 l 8.833333,0.23208 c 8.112569,0.21314 9.149212,0.38718 12.704592,2.133 4.59246,2.25505 8.4691,6.76905 10.14403,11.81178 0.85899,2.58618 1.06864,5.0381 0.87046,10.18032 -0.22951,5.95498 -0.49653,7.20332 -2.20937,10.32879 -2.31433,4.22303 -4.71967,6.38751 -9.67638,8.70744 -3.20743,1.50121 -4.731256,1.74674 -12.166665,1.9604 l -8.5,0.24425 z m 106.693565,36.66003 c 7.47098,-1.41685 14.10188,-5.73095 16.80245,-10.93178 1.04463,-2.0118 1.48878,-4.30792 1.68864,-8.72979 0.25281,-5.59364 0.14093,-6.2475 -1.6519,-9.65448 -1.69301,-3.21727 -5.08139,-6.57408 -8.65415,-8.5735 -0.89204,-0.49921 -0.64791,-1.00272 1.55363,-3.20426 3.51042,-3.51042 5.03653,-6.97248 5.41689,-12.28852 0.66972,-9.36016 -3.95511,-15.82392 -13.42578,-18.76419 -4.2773,-1.32793 -6.2012,-1.47869 -19.09001,-1.4959 L 157.66666,343 l -0.17226,37.16667 -0.17226,37.16666 h 14.24793 c 7.83637,0 15.84194,-0.30229 17.79016,-0.67176 z M 172.14551,395.5 l 0.18782,-7.83333 5.66667,0.0124 c 7.27941,0.0159 10.1483,0.6375 12.64704,2.74005 1.69457,1.42589 2.01962,2.17976 2.01962,4.68397 0,3.96406 -0.88955,5.42659 -4.22045,6.93894 -2.14057,0.9719 -4.3553,1.26539 -9.63404,1.27666 l -6.85449,0.0146 z M 172,365.33333 v -8 h 5.69977 c 6.12238,0 8.76474,0.86753 10.59309,3.47787 1.33513,1.90616 1.33331,6.02206 -0.004,8.60776 -1.44682,2.79784 -4.5657,3.91437 -10.93431,3.91437 H 172 Z m 154.52422,44.5 2.97774,-7.16666 h 12.18845 12.18845 l 2.8939,7.3291 2.8939,7.3291 8.5,0.004 c 4.675,0.002 8.5,-0.0953 8.5,-0.21685 0,-0.85092 -33.34317,-76.78219 -33.7809,-76.9281 -0.48504,-0.16168 -32.59084,72.87737 -33.40754,76.00044 -0.28855,1.10341 0.24154,1.1809 6.87781,1.00548 L 323.54648,417 Z m 11.26009,-27 c 1.66933,-3.94166 3.18575,-7.69166 3.36983,-8.33333 0.18408,-0.64167 0.5247,-1.16476 0.75694,-1.16243 0.33547,0.003 4.00003,8.78112 6.46921,15.49576 0.39144,1.06448 -0.18675,1.16667 -6.60105,1.16667 h -7.03006 z m 207.54901,-5.52255 v -40.02256 l -7.16667,0.18923 -7.16666,0.18922 -0.17191,39.83333 -0.17192,39.83333 h 7.33858 7.33858 z m 259.33333,0.0225 v -40 h -7 -7 v 40 40 h 7 7 z M 523.97256,309.16667 c -0.0151,-0.45834 -2.5163,-12.9581 -5.55826,-27.77725 l -5.53084,-26.94392 3.5676,-4.97249 c 17.12644,-23.87069 25.05886,-53.69599 22.25278,-83.66875 l -0.83335,-8.90132 2.66035,-6.2848 c 7.71069,-18.21571 12.02255,-37.8816 12.48692,-56.951473 l 0.27598,-11.333334 -0.95138,7.420489 C 542.30039,168.0779 486.03269,230.85426 410.82369,247.64239 c -15.22726,3.39902 -21.28011,3.98461 -41.15703,3.98176 -16.14062,-0.002 -19.87677,-0.20284 -27.60894,-1.48187 -11.0274,-1.82412 -22.93319,-4.72241 -31.72439,-7.72283 -3.66667,-1.25143 -7.26667,-2.47338 -8,-2.71546 -3.91043,-1.29083 9.67428,5.17391 15.33333,7.29689 16.95263,6.35974 30.53554,9.34968 46.42642,10.21964 11.8727,0.64998 13.87055,1.35875 16.39557,5.81663 2.05431,3.62685 1.90873,6.73868 -0.53238,11.37929 -5.4151,10.29427 -6.03815,17.63302 -1.83045,21.56036 6.83172,6.37653 35.51446,9.05744 56.87417,5.31591 24.33189,-4.26217 46.73193,-15.57219 64.61178,-32.62319 4.3328,-4.13194 5.5984,-5.06677 4.66667,-3.44698 -3.2838,5.70874 -12.16435,16.47478 -19.24208,23.32746 -6.14964,5.95412 -7.5413,7.62163 -6.58382,7.88883 0.66776,0.18634 10.81412,3.28387 22.54745,6.88339 11.73333,3.59952 21.70833,6.57456 22.16666,6.61118 0.45834,0.0366 0.821,-0.3084 0.80591,-0.76673 z M 400.62921,223.82456 c 1.49684,-1.67525 2.42308,-2.03665 6.2297,-2.43064 3.6914,-0.38208 4.84967,-0.81305 6.63959,-2.47048 1.19249,-1.10422 2.99316,-2.35729 4.00149,-2.7846 1.00833,-0.42731 1.83333,-1.06009 1.83333,-1.40618 0,-0.81712 3.40772,-1.84039 7.9061,-2.37404 1.96502,-0.23312 4.86056,-0.86106 6.43452,-1.39544 3.3674,-1.14326 4.8545,-0.74598 5.40408,1.44369 0.42872,1.70817 1.46445,2.12433 1.89095,0.7598 0.14326,-0.45834 0.44563,-1.94869 0.67193,-3.31191 0.64641,-3.89382 1.88408,-4.70747 6.36889,-4.18696 3.59197,0.4169 3.88769,0.33949 5.23201,-1.36954 1.11256,-1.41438 1.42486,-2.73103 1.42486,-6.00721 0,-5.04885 0.93951,-6.29105 4.75811,-6.29105 1.46458,0 3.24315,-0.31056 3.95238,-0.69012 1.69198,-0.90552 1.66846,-4.07688 -0.0585,-7.88268 -0.72528,-1.59838 -1.31869,-3.02338 -1.31869,-3.16667 0,-0.46572 4.31135,-0.25431 5.09174,0.24968 0.41712,0.26938 1.20984,1.57417 1.76159,2.89951 1.18313,2.84195 3.30246,3.62542 7.06578,2.61206 2.79592,-0.75286 4.00265,-1.87012 5.75807,-5.33114 1.66175,-3.27632 1.44336,-6.42531 -0.76171,-10.98349 -2.46609,-5.09772 -4.28532,-6.37885 -9.99896,-7.04146 -2.52075,-0.29233 -5.58561,-1.04735 -6.8108,-1.67783 -1.77671,-0.91429 -2.559,-0.99535 -3.8647,-0.40043 -0.9004,0.41025 -2.51605,0.7459 -3.59034,0.7459 -2.11889,0 -3.49516,1.58091 -4.26815,4.90278 -0.59346,2.55029 -2.32191,5.09722 -3.45919,5.09722 -1.22025,0 -1.17977,-2.48458 0.12236,-7.50967 0.57513,-2.2195 0.87233,-4.7262 0.66044,-5.57045 -0.21189,-0.84424 -1.78429,-2.60322 -3.49421,-3.90884 -3.86545,-2.95149 -5.91727,-5.91713 -6.96062,-10.06063 -0.62782,-2.49332 -1.80309,-4.25375 -5.28204,-7.91196 -2.46101,-2.58781 -5.33586,-5.68626 -6.38857,-6.88543 -1.43031,-1.62931 -3.21227,-2.57747 -7.05109,-3.75182 -5.57996,-1.70699 -7.02755,-1.56158 -3.82754,0.38446 1.11683,0.67918 1.84805,1.53026 1.62493,1.89128 -0.61015,0.98725 -1.56522,0.79694 -3.07922,-0.61356 -0.74973,-0.69848 -2.37666,-1.4601 -3.6154,-1.69249 C 408.63763,125.1424 408.02286,124 410.71526,124 c 2.76397,0 7.42448,-4.49571 5.67529,-5.4746 -0.58148,-0.32541 -1.05723,-1.02675 -1.05723,-1.55853 0,-2.05144 7.17994,-0.51899 10.14636,2.16558 0.65733,0.59488 1.35715,0.9196 1.55514,0.72161 0.45739,-0.45739 -3.97214,-3.95681 -7.03483,-5.55765 -1.5597,-0.81525 -4.04553,-1.27168 -7.49744,-1.37663 -5.07077,-0.15418 -12.02649,-1.71354 -13.66923,-3.06442 -1.35592,-1.11503 -1.05186,-7.43886 0.44627,-9.2815 C 400.39548,99.201339 401.13548,99 405.06412,99 h 4.50493 l 2.24514,-3.833333 c 2.42241,-4.135994 3.31557,-4.566576 5.1858,-2.5 C 417.79498,93.54512 419.0533,94 420.68835,94 c 2.60232,0 3.67086,-0.783233 4.08065,-2.991083 0.43045,-2.319178 5.56309,-4.576631 10.52522,-4.629233 l 4.37244,-0.04635 -0.22944,2.593206 c -0.12619,1.426264 0.15008,3.302349 0.61394,4.169079 0.73498,1.373322 0.65736,1.773882 -0.60389,3.116428 -2.01864,2.148739 -1.81436,3.438222 0.88603,5.592863 2.01861,1.61065 2.33332,2.24982 2.33334,4.73892 2e-5,3.53105 0.95424,5.45617 2.70443,5.45617 1.4129,0 2.15666,-1.30609 3.27761,-5.75567 0.38182,-1.51563 1.15157,-3.13525 1.71057,-3.59918 0.58501,-0.48552 3.20011,-0.90473 6.16188,-0.98778 7.84616,-0.22002 11.18987,-2.026633 11.90479,-6.432197 0.28942,-1.783432 -0.0823,-2.877402 -1.86559,-5.491103 -1.85269,-2.715351 -2.88922,-3.506916 -6.1668,-4.709379 -2.39533,-0.878785 -4.12856,-1.950973 -4.42132,-2.735051 -0.79391,-2.126326 -2.8018,-3.426101 -5.89728,-3.817509 -1.60878,-0.203423 -3.38872,-0.833532 -3.95543,-1.400243 -0.9294,-0.9294 -0.91029,-1.163091 0.19504,-2.384468 1.72855,-1.910028 3.45824,-1.685143 5.67079,0.737288 1.89077,2.07013 4.01466,2.293169 4.01466,0.421596 0,-0.590831 1.04515,-0.859707 3.32057,-0.854257 3.02202,0.0072 3.50591,0.23273 5.38187,2.507954 1.93746,2.349807 2.28868,2.500626 5.8461,2.510414 6.10394,0.0168 11.00682,1.493687 15.02177,4.525002 11.26337,8.503931 20.42859,18.336223 28.3317,30.393783 l 4.32325,6.59587 -0.7793,2.9137 c -1.04441,3.90492 -0.98149,6.82051 0.2207,10.2279 0.55,1.55886 0.99294,4.37158 0.98431,6.25048 -0.0188,4.08394 -2.34933,13.30704 -3.45712,13.68133 -1.7447,0.5895 -3.86075,3.439 -3.86491,5.20455 -0.002,1.025 -0.60044,2.76364 -1.32894,3.86364 -0.7285,1.1 -1.32653,2.32353 -1.32894,2.71896 -0.006,1.05533 -6.16179,10.34587 -6.57847,9.92919 -0.19492,-0.19493 1.20931,-3.42051 3.12054,-7.16795 1.91122,-3.74745 3.47013,-7.33854 3.46424,-7.9802 -0.0159,-1.73335 -1.92351,-1.41286 -2.37841,0.39958 -0.38698,1.54188 -4.13987,7.26242 -7.86822,11.99355 -1.04642,1.32788 -2.54642,4.29514 -3.33333,6.59393 l -1.43074,4.1796 -6.66667,3.46316 c -5.51907,2.86701 -7.08665,3.40378 -9.10644,3.11824 -2.14479,-0.30321 -2.69462,-0.0648 -4.54775,1.97161 -1.35186,1.48559 -2.98761,2.48141 -4.56023,2.7762 -4.88048,0.91485 -6.73834,2.11672 -8.06835,5.2195 -1.14144,2.66288 -1.78463,3.1949 -6.80596,5.62967 -5.337,2.58782 -5.57874,2.64126 -6.4328,1.42191 -1.04945,-1.4983 -2.34999,-1.62668 -3.41985,-0.33758 -0.88965,1.07195 0.35049,2.68744 2.61469,3.40607 0.73264,0.23253 1.70587,1.12687 2.16272,1.98741 l 0.83064,1.56463 6.77719,-3.20515 c 31.05012,-14.68455 59.09215,-41.89855 73.5788,-71.40614 l 2.15549,-4.39047 -3.0652,-7.13504 C 513.4841,92.037249 480.34773,64.431855 441.83227,55.705196 371.82328,39.842868 302.68806,86.3724 290.71199,157.41249 c -1.67375,9.92841 -2.07534,23.46506 -0.76899,25.92084 1.61588,3.03769 6.42486,7.33334 8.20967,7.33334 0.12038,0 0.10115,-4.0288 -0.0427,-8.95289 -0.45625,-15.61309 2.09708,-31.23241 6.03877,-36.94062 4.68559,-6.7855 7.05945,-7.93398 11.89352,-5.75412 2.42697,1.09441 2.82453,1.10462 5.29096,0.13577 1.46675,-0.57615 2.66681,-0.81355 2.66681,-0.52754 0,0.286 0.79361,1.68686 1.76356,3.11303 0.96996,1.42617 2.04936,3.64303 2.39867,4.92637 0.57033,2.09536 2.13608,4.48976 7.84703,12 3.57439,4.70052 4.24535,7.97242 2.32408,11.33333 -1.20493,2.10779 -1.26232,5.38642 -0.12161,6.94643 0.64669,0.88441 0.73686,2.19295 0.34184,4.96076 -0.51726,3.62431 -0.46616,3.82013 1.42127,5.44659 1.07681,0.92791 7.14798,4.80537 13.49149,8.61659 18.81037,11.30137 26.90638,17.03606 34.06557,24.12987 6.30108,6.24354 6.61684,6.45846 8.93548,6.0822 1.48255,-0.24059 3.07733,-1.1441 4.16184,-2.35788 z m 28.33745,-36.4437 c -0.34834,-0.34052 -1.68334,-0.71755 -2.96667,-0.83784 l -2.33333,-0.21871 2.33333,-1.493 c 2.56783,-1.64303 9.01434,-2.24565 7.46667,-0.69798 -1.2301,1.2301 -0.96739,1.75275 1.03333,2.05583 1.49947,0.22715 1.38523,0.29592 -0.62732,0.37762 -1.35336,0.0549 -2.64607,0.39989 -2.87268,0.76655 -0.51471,0.83282 -1.21333,0.84915 -2.03333,0.0475 z m -9.63334,-0.71419 c 0,-0.36667 0.3,-0.66667 0.66667,-0.66667 0.36667,0 0.66667,0.3 0.66667,0.66667 0,0.36666 -0.3,0.66666 -0.66667,0.66666 -0.36667,0 -0.66667,-0.3 -0.66667,-0.66666 z m 18.71956,-3.91736 c -1.42761,-0.39908 -1.01815,-0.75345 3.54928,-3.07176 6.01855,-3.05485 12.72432,-4.02734 14.34071,-2.07971 1.04655,1.26101 0.70397,1.33497 -1.51035,0.32605 -1.2793,-0.58288 -2.3982,-0.49094 -5.19804,0.42715 -4.087,1.34016 -7.42771,3.46364 -6.86965,4.3666 0.42925,0.69455 -1.87996,0.71151 -4.31195,0.0317 z M 320.66666,136.17867 c -2.39829,-0.44094 -3.33333,-1.42169 -3.33333,-3.49628 0,-1.01842 -0.73458,-2.61365 -1.66667,-3.61939 -0.91667,-0.9891 -1.66667,-2.09346 -1.66667,-2.45414 0,-0.40904 -0.50538,-0.3853 -1.34322,0.0631 -1.9237,1.02953 -2.38284,-0.63878 -0.94815,-3.44512 0.94839,-1.85513 6.6556,-11.04897 7.31408,-11.7824 0.10973,-0.12222 0.85388,0.43214 1.65365,1.23192 0.96612,0.96611 1.99692,1.35037 3.07147,1.14496 2.20053,-0.42066 2.58451,0.4799 0.59175,1.38786 -1.82721,0.83254 -4.62096,5.76263 -4.07369,7.18879 0.40946,1.06703 4.11087,1.27712 4.73411,0.2687 C 325.2266,122.3 326.3919,122 327.58953,122 h 2.17751 l -0.14454,4.5 c -0.20388,6.34711 -0.86057,8.83333 -2.33316,8.83333 -0.66586,0 -1.39607,0.3 -1.62268,0.66667 -0.4182,0.67666 -1.98655,0.7327 -5,0.17867 z m 0.72379,-26.95207 c 1.52201,-2.8439 5.5032,-8.88759 7.51245,-11.404342 1.4393,-1.802843 2.15588,-2.272916 2.54069,-1.666667 0.80139,1.262535 0.75419,1.373342 -1.91152,4.487619 -2.01624,2.35552 -2.4355,3.33221 -2.2908,5.3364 0.2062,2.85582 -0.56792,3.66501 -4.11866,4.30527 -2.48721,0.44848 -2.5259,0.42484 -1.73216,-1.05828 z m 10.37205,-3.70394 c -0.99657,-0.25317 -1.15638,-0.71997 -0.82084,-2.39768 0.54871,-2.74354 1.18354,-3.286281 3.24011,-2.77011 1.64651,0.41324 1.67802,0.51516 0.87566,2.83271 -0.87927,2.53971 -1.30415,2.84082 -3.29493,2.33508 z m 44.23303,-19.194707 c -0.52493,-0.632499 -0.70921,-2.116043 -0.49686,-4 0.18565,-1.647041 0.0925,-2.99462 -0.20699,-2.99462 -0.2995,0 -0.63764,-1.125 -0.75145,-2.5 -0.19315,-2.333821 -0.39381,-2.545096 -3.01867,-3.178429 -4.33397,-1.045712 -4.85335,-2.021221 -1.77597,-3.335656 5.6272,-2.403529 16.44102,-5.640479 23.20253,-6.945316 7.91709,-1.52784 9.52128,-1.650582 7.05187,-0.539563 -1.58873,0.714788 -1.52638,0.767369 1.33333,1.124409 2.05576,0.256664 3,0.689304 3,1.374555 0,0.767732 -0.6968,0.957684 -3,0.817815 -2.57686,-0.156489 -2.81194,-0.0705 -1.66666,0.609691 0.73333,0.435532 1.55374,1.117516 1.82312,1.515519 0.95622,1.412761 0.48977,4.201908 -0.91204,5.45365 -0.78224,0.698496 -2.55793,2.799273 -3.94598,4.668394 C 393.59867,82.482713 390.68153,84 385.86209,84 c -2.79641,0 -4.10881,0.373132 -5.8621,1.666667 -2.64345,1.950274 -2.89959,1.992574 -4.00446,0.661286 z m 42.29667,-0.261405 c 0.25245,-0.408483 1.36786,-1.212684 2.47869,-1.787113 2.78403,-1.439679 2.0183,-1.818728 -1.67732,-0.830301 -2.25952,0.604328 -3.28377,0.627339 -3.82517,0.08594 -0.5414,-0.5414 0.30548,-1.416911 3.16277,-3.269666 2.76682,-1.794096 3.56271,-2.602956 2.73549,-2.78006 -0.64167,-0.137378 -1.16667,-0.506662 -1.16667,-0.820631 0,-0.313969 -1.40601,0.214984 -3.12448,1.175451 -2.11525,1.182238 -3.20988,1.490084 -3.38889,0.953069 C 413.3412,78.356956 412.64721,78 411.94443,78 c -1.95672,0 -1.5182,-1.799762 0.55556,-2.280132 1.00833,-0.233572 3.56603,-1.055549 5.68376,-1.826616 2.9209,-1.063499 3.76815,-1.662419 3.50959,-2.480929 -0.41565,-1.315773 4.24158,-3.418485 8.67936,-3.918688 1.6137,-0.181887 2.79171,-0.560928 2.61781,-0.842313 -0.63155,-1.021864 1.80259,-1.283083 3.88008,-0.41639 3.01808,1.259092 6.46273,1.266324 6.46273,0.01357 0,-0.742874 0.63471,-0.943124 2.5,-0.788745 2.17455,0.179975 2.58304,0.48897 3.13787,2.373577 0.79728,2.708168 1.367,2.734752 2.2832,0.106539 0.39499,-1.133071 0.94934,-1.948445 1.23188,-1.811942 3.30717,1.597753 4.18039,2.220035 4.18039,2.97908 0,0.491145 -0.525,0.916674 -1.16667,0.945622 -0.69696,0.03144 -0.83116,0.188011 -0.33333,0.388888 4.02978,1.626053 -7.68184,1.462319 -12.24975,-0.171257 -2.54989,-0.91189 -3.01022,-0.88094 -6.33334,0.425813 -1.97097,0.775047 -4.60364,2.037809 -5.85037,2.806137 l -2.26679,1.39696 1.85178,1.476558 c 1.01848,0.812107 1.66226,1.783209 1.43062,2.158003 -0.24897,0.402849 0.73836,0.861785 2.41501,1.122556 4.18405,0.650747 5.37041,1.077063 4.73661,1.702094 -0.31191,0.307598 -1.96939,0.258346 -3.68329,-0.109448 -2.50842,-0.538292 -3.51611,-0.461911 -5.16667,0.391627 -1.12776,0.583189 -2.05048,1.35264 -2.05048,1.70989 0,0.357251 -0.4649,0.649547 -1.03311,0.649547 -0.56821,0 -1.84321,0.413869 -2.83333,0.919708 -2.60774,1.332254 -6.41832,2.08039 -5.84135,1.146839 z m 162.91355,15.111862 c -2.90433,-5.470781 -27.00144,-41.845077 -27.72138,-41.845077 -0.94532,0 -25.28589,37.116584 -28.81113,43.933667 l -0.82756,1.60033 1.91049,-1.36225 c 1.05077,-0.74923 7.70744,-6.993947 14.7926,-13.877137 l 12.88212,-12.514892 10.45121,10.33166 c 9.62864,9.51849 18.6454,17.888619 19.27059,17.888619 0.14235,0 -0.73377,-1.86971 -1.94694,-4.15492 z"
       id="path1" />
  </g>
</svg>
